<?xml version="1.0" standalone="no"?>
<!DOCTYPE svg PUBLIC "-//W3C//DTD SVG 20010904//EN"
 "http://www.w3.org/TR/2001/REC-SVG-20010904/DTD/svg10.dtd">
<svg version="1.0" xmlns="http://www.w3.org/2000/svg"
 width="500.000000pt" height="500.000000pt" viewBox="0 0 500.000000 500.000000"
 preserveAspectRatio="xMidYMid meet">

<g transform="translate(0.000000,500.000000) scale(0.100000,-0.100000)"
fill="#000000" stroke="none">
<path d="M0 2500 l0 -2500 2500 0 2500 0 0 2500 0 2500 -2500 0 -2500 0 0
-2500z m1399 1178 c5 -13 5 -33 0 -46 -5 -13 -9 -34 -9 -48 l0 -24 295 0 295
0 11 -27 c6 -17 9 -102 7 -216 -2 -154 -6 -189 -18 -197 -9 -6 -139 -10 -302
-10 l-288 0 0 -40 c0 -31 4 -40 18 -40 9 0 122 11 251 26 129 14 240 23 248
20 11 -5 13 -41 11 -193 l-3 -188 -262 -29 -263 -30 0 -428 0 -428 25 0 c22 0
25 -4 25 -35 l0 -35 -85 0 -85 0 0 35 c0 31 3 35 25 35 l25 0 0 425 0 426 -47
-6 c-27 -4 -142 -17 -257 -29 -178 -19 -210 -20 -222 -8 -11 10 -14 51 -14
180 0 92 4 173 9 181 6 9 86 22 267 42 143 15 260 28 262 29 2 0 2 21 0 48
l-3 47 -300 5 -300 5 -3 204 c-2 142 1 208 9 217 9 11 68 14 306 14 l295 0 -5
28 c-3 15 -9 39 -13 55 -9 36 10 57 53 57 26 0 36 -5 42 -22z m1844 -1196 l37
-7 -62 -56 c-35 -31 -74 -61 -87 -68 -17 -9 -100 -13 -302 -14 -153 -1 -279
-1 -279 1 0 5 95 44 202 83 119 43 224 60 418 67 19 0 52 -2 73 -6z m300 -38
c101 -26 104 -29 67 -71 -17 -19 -36 -45 -41 -57 -10 -21 -15 -22 -142 -18
-73 2 -154 7 -181 10 l-49 7 34 45 c70 91 176 120 312 84z m301 -104 c80 -70
146 -115 237 -165 103 -55 97 -59 -9 -6 -79 40 -178 108 -267 184 -28 23 -61
50 -75 60 -15 11 -7 9 19 -5 24 -13 67 -43 95 -68z m-125 34 c46 -27 101 -72
101 -84 0 -7 -222 -1 -229 6 -8 7 64 104 77 104 3 0 26 -12 51 -26z m-942 -70
c-183 -18 -358 -49 -398 -70 -19 -9 -60 -42 -93 -73 l-59 -56 31 59 c18 33 28
64 24 68 -11 11 -209 15 -242 6 -18 -6 -17 -4 5 6 93 43 363 74 645 74 l225 0
-138 -14z m-521 -88 c8 -20 -39 -101 -70 -121 -18 -12 -48 -15 -137 -13 l-114
3 3 25 3 25 -20 -25 c-19 -23 -21 -23 -21 -5 0 27 42 94 48 77 3 -10 8 -7 19
7 8 12 21 21 29 21 8 0 13 4 10 8 -2 4 51 9 120 11 105 2 125 0 130 -13z m211
-2 c9 -24 -13 -62 -49 -84 -41 -25 -56 -25 -88 0 l-25 19 21 28 c12 15 25 27
30 27 5 -1 18 5 29 12 26 19 74 18 82 -2z m161 -10 c5 -33 -52 -76 -97 -73
-38 3 -61 15 -61 32 0 6 7 2 15 -9 14 -18 15 -17 6 8 -8 20 -6 29 7 41 9 8 23
12 31 9 8 -2 11 0 8 5 -3 5 15 9 41 8 40 0 47 -3 50 -21z m266 -73 c-48 -29
-68 -91 -62 -193 5 -91 23 -139 66 -175 34 -28 10 -31 -34 -4 -45 27 -68 82
-72 174 -4 68 -1 84 21 130 25 50 65 86 97 87 8 0 1 -9 -16 -19z m905 -110
c-6 -17 -19 -35 -28 -40 -9 -5 -131 -11 -271 -14 l-255 -6 225 15 c251 16 293
24 316 60 22 32 27 26 13 -15z m-69 -90 c28 -5 -52 -8 -205 -8 -231 1 -238 2
-90 7 88 3 180 6 205 7 25 1 65 -2 90 -6z m-1002 -53 l-3 -53 -45 -7 c-95 -14
-468 -20 -612 -10 -170 13 -218 28 -218 67 0 20 4 25 18 21 147 -45 583 -45
648 -1 21 14 53 22 114 26 47 3 89 6 93 7 4 1 7 -22 5 -50z m80 -80 c12 -18
35 -42 53 -52 40 -24 26 -30 -45 -22 -41 6 -60 14 -82 37 l-28 29 32 0 c31 0
32 1 33 48 1 41 2 43 9 20 4 -15 17 -42 28 -60z m1175 65 c-7 -2 -19 -2 -25 0
-7 3 -2 5 12 5 14 0 19 -2 13 -5z m-218 -33 c-142 -23 -212 -29 -330 -28
l-150 1 280 27 c361 35 427 35 200 0z m-1456 -67 c-19 -23 -88 -53 -123 -53
-43 0 -100 20 -132 46 l-29 23 149 1 c137 0 147 -1 135 -17z"/>
<path d="M1050 3530 l-305 -5 -3 -179 c-2 -123 1 -183 9 -192 16 -19 1188 -21
1207 -2 8 8 12 65 12 190 0 165 -1 178 -19 188 -20 10 -303 10 -901 0z m-28
-58 l-3 -22 453 -2 453 -3 3 -107 3 -108 -457 0 -456 0 6 -25 c5 -18 2 -25 -8
-25 -27 0 -236 141 -236 159 0 17 217 162 235 157 6 -2 9 -13 7 -24z"/>
<path d="M976 3388 c-19 -27 -21 -78 -3 -102 9 -12 23 -17 47 -14 31 3 36 7
45 41 7 30 5 45 -6 65 -20 36 -62 41 -83 10z m63 -12 c17 -20 10 -67 -11 -79
-23 -15 -48 8 -48 42 0 45 35 66 59 37z"/>
<path d="M1110 3340 c0 -40 4 -70 10 -70 6 0 10 19 10 43 l0 42 26 -42 c14
-24 29 -43 35 -43 5 0 9 32 9 70 0 40 -4 70 -10 70 -5 0 -10 -21 -10 -47 l-1
-48 -25 48 c-13 26 -29 47 -34 47 -6 0 -10 -31 -10 -70z"/>
<path d="M1240 3340 l0 -70 45 0 c25 0 45 5 45 10 0 6 -13 10 -30 10 -23 0
-30 4 -30 20 0 16 7 20 30 20 17 0 30 5 30 10 0 6 -13 10 -30 10 -23 0 -30 4
-30 20 0 16 7 20 30 20 17 0 30 5 30 10 0 6 -20 10 -45 10 l-45 0 0 -70z"/>
<path d="M1425 3398 c2 -7 9 -39 15 -70 14 -72 36 -78 46 -13 7 53 20 51 29
-5 10 -59 31 -51 45 18 6 31 13 63 15 70 3 6 -1 12 -9 12 -7 0 -17 -20 -22
-47 l-10 -48 -10 45 c-6 28 -15 45 -24 45 -8 0 -19 -18 -26 -45 l-11 -45 -8
48 c-4 29 -12 47 -21 47 -7 0 -12 -6 -9 -12z"/>
<path d="M1610 3343 c-21 -67 -19 -92 4 -60 7 9 21 17 31 17 10 0 24 -8 31
-17 23 -32 24 -8 2 60 -12 37 -28 67 -35 67 -7 0 -21 -30 -33 -67z m49 -15 c1
-5 -6 -8 -14 -8 -16 0 -19 9 -8 36 6 16 7 16 14 -2 4 -10 8 -22 8 -26z"/>
<path d="M1710 3405 c0 -2 9 -19 20 -37 11 -18 20 -48 20 -65 0 -18 5 -33 10
-33 6 0 10 11 10 25 0 14 9 43 20 65 23 45 24 50 10 50 -5 0 -16 -12 -24 -27
l-14 -28 -13 28 c-7 15 -18 27 -26 27 -7 0 -13 -2 -13 -5z"/>
<path d="M2340 2185 c-7 -9 -11 -17 -9 -20 3 -2 10 5 17 15 14 24 10 26 -8 5z"/>
<path d="M2499 2193 c-13 -16 -12 -17 4 -4 9 7 17 15 17 17 0 8 -8 3 -21 -13z"/>
</g>
</svg>
